<svg width="216" height="30" viewBox="0 0 216 30" fill="none" xmlns="http://www.w3.org/2000/svg">
<g clip-path="url(#clip0_3590_101143)">
<path d="M56.7876 4.62973C58.9516 4.62973 60.6448 5.30702 61.8673 6.66159L59.7115 8.76779C59.249 8.38784 58.7947 8.10702 58.3487 7.92531C57.9027 7.72708 57.3988 7.62796 56.8372 7.62796C55.7139 7.62796 54.7971 8.05746 54.0867 8.91646C53.3764 9.75894 52.8643 10.7914 52.5504 12.0138C52.2531 13.2197 52.1044 14.4008 52.1044 15.5572C52.1044 16.8952 52.3687 17.8864 52.8973 18.5306C53.426 19.1749 54.1693 19.497 55.1274 19.497C55.7386 19.497 56.3086 19.3731 56.8372 19.1253C57.3823 18.8775 57.9687 18.5224 58.5965 18.0598L60.1575 20.4634C59.4307 21.1076 58.5882 21.6362 57.6301 22.0492C56.6885 22.4457 55.6478 22.6439 54.508 22.6439C52.5091 22.6439 50.915 22.0327 49.7257 20.8103C48.5528 19.5713 47.9664 17.8203 47.9664 15.5572C47.9664 13.8392 48.272 12.146 48.8832 10.4775C49.4944 8.79256 50.4608 7.39669 51.7823 6.28991C53.1038 5.18313 54.7723 4.62973 56.7876 4.62973ZM77.4955 8.64389C78.3875 8.64389 79.0896 8.92472 79.6017 9.48637C80.1303 10.048 80.3946 10.8244 80.3946 11.8156C80.3946 12.179 80.3781 12.4598 80.3451 12.6581L79.007 22.2227H75.1663L76.4052 13.5253C76.4383 13.1949 76.4548 12.9802 76.4548 12.8811C76.4548 12.4846 76.3805 12.212 76.2318 12.0634C76.0996 11.9147 75.9097 11.8404 75.6619 11.8404C74.8689 11.8404 74.0182 12.8398 73.1097 14.8386L72.0689 22.2227H68.2282L69.4672 13.5253C69.5002 13.1949 69.5167 12.9884 69.5167 12.9058C69.5167 12.5094 69.4424 12.2368 69.2937 12.0881C69.1451 11.9229 68.9468 11.8404 68.699 11.8404C68.2861 11.8404 67.8566 12.1212 67.4105 12.6828C66.9645 13.2445 66.5515 13.9961 66.1716 14.9377L65.1557 22.2227H61.315L63.1486 9.06513H66.4937L66.4194 11.2209C66.9645 10.3949 67.584 9.75894 68.2778 9.31292C68.9716 8.8669 69.7232 8.64389 70.5327 8.64389C71.3091 8.64389 71.9533 8.85864 72.4654 9.28814C72.9775 9.71764 73.2914 10.3206 73.407 11.097C73.9356 10.3371 74.5551 9.74242 75.2654 9.31292C75.9923 8.8669 76.7356 8.64389 77.4955 8.64389ZM88.003 8.64389C89.8862 8.64389 91.4969 9.20554 92.8349 10.3288L91.1252 12.435C90.6461 12.1047 90.134 11.8569 89.5889 11.6917C89.0603 11.51 88.5399 11.4191 88.0278 11.4191C87.4662 11.4191 87.0284 11.5182 86.7146 11.7165C86.4172 11.9147 86.2685 12.179 86.2685 12.5094C86.2685 12.7406 86.3346 12.9306 86.4668 13.0793C86.6154 13.228 86.855 13.3766 87.1853 13.5253C87.5323 13.6575 88.0774 13.8392 88.8207 14.0704C89.9606 14.4339 90.8113 14.9377 91.373 15.5819C91.9511 16.2262 92.2402 17.0522 92.2402 18.0598C92.2402 18.9023 92.0255 19.6704 91.596 20.3642C91.1665 21.0581 90.5057 21.6114 89.6137 22.0244C88.7216 22.4374 87.6314 22.6439 86.3429 22.6439C85.203 22.6439 84.1541 22.4457 83.196 22.0492C82.2379 21.6527 81.4615 21.1324 80.8668 20.4881L82.8243 18.4563C83.865 19.3814 85.0461 19.8439 86.3677 19.8439C87.0284 19.8439 87.5323 19.72 87.8792 19.4722C88.2261 19.2244 88.3995 18.9106 88.3995 18.5306C88.3995 18.2333 88.3252 18.002 88.1765 17.8368C88.0443 17.6551 87.8048 17.4899 87.4579 17.3412C87.111 17.176 86.5576 16.9613 85.7977 16.697C84.6414 16.3005 83.7907 15.805 83.2455 15.2103C82.7169 14.6156 82.4526 13.8392 82.4526 12.8811C82.4526 12.1047 82.6674 11.4026 83.0969 10.7749C83.5264 10.1306 84.1623 9.61852 85.0048 9.23858C85.8473 8.84212 86.8467 8.64389 88.003 8.64389ZM107.669 5.05097L106.802 8.1731H102.639L100.656 22.2227H96.6671L98.6494 8.1731H94.2636L94.7096 5.05097H107.669ZM111.004 22.6439C109.269 22.6439 107.915 22.1483 106.94 21.1572C105.982 20.166 105.503 18.7949 105.503 17.0439C105.503 15.6893 105.742 14.376 106.221 13.1041C106.7 11.8156 107.485 10.7501 108.575 9.90761C109.682 9.06513 111.103 8.64389 112.837 8.64389C114.555 8.64389 115.902 9.13947 116.876 10.1306C117.851 11.1218 118.338 12.4681 118.338 14.1696C118.338 15.5241 118.099 16.8457 117.62 18.1342C117.141 19.4227 116.348 20.4964 115.241 21.3554C114.151 22.2144 112.738 22.6439 111.004 22.6439ZM111.276 19.7696C112.416 19.7696 113.217 19.1666 113.68 17.9607C114.142 16.7383 114.382 15.4168 114.398 13.9961C114.398 13.1371 114.242 12.5094 113.928 12.1129C113.63 11.7165 113.176 11.5182 112.565 11.5182C111.425 11.5182 110.616 12.1294 110.136 13.3519C109.674 14.5743 109.443 15.8876 109.443 17.2917C109.443 18.1507 109.591 18.7784 109.889 19.1749C110.186 19.5713 110.649 19.7696 111.276 19.7696ZM121.466 9.06513H124.86V10.5271C126.05 9.27162 127.338 8.64389 128.726 8.64389C130.048 8.64389 131.055 9.08991 131.749 9.98195C132.443 10.8575 132.79 12.1212 132.79 13.7731C132.79 15.1772 132.55 16.5566 132.071 17.9112C131.609 19.2657 130.857 20.3973 129.816 21.3058C128.776 22.1979 127.437 22.6439 125.802 22.6439C124.91 22.6439 124.125 22.52 123.448 22.2722L122.705 27.3271L118.864 27.7483L121.466 9.06513ZM125.53 19.7943C126.289 19.7943 126.917 19.4887 127.413 18.8775C127.908 18.2663 128.272 17.5064 128.503 16.5979C128.734 15.6728 128.85 14.756 128.85 13.8474C128.85 12.9884 128.709 12.3855 128.429 12.0386C128.148 11.6917 127.76 11.5182 127.264 11.5182C126.389 11.5182 125.554 12.0221 124.761 13.0297L123.869 19.4722C124.414 19.687 124.968 19.7943 125.53 19.7943ZM146.78 5.05097C149.142 5.05097 151.026 5.53003 152.43 6.48814C153.85 7.42973 154.561 9.12295 154.561 11.5678C154.561 14.6899 153.793 17.2504 152.256 19.2492C150.737 21.2315 148.267 22.2227 144.847 22.2227H139.718L142.122 5.05097H146.78ZM145.715 7.99965L144.129 19.2988H145.442C147.259 19.2988 148.548 18.5306 149.308 16.9943C150.084 15.4415 150.472 13.6327 150.472 11.5678C150.472 10.1967 150.175 9.26336 149.58 8.76779C148.986 8.25569 148.135 7.99965 147.028 7.99965H145.715ZM167.931 12.2368C167.931 13.9053 167.147 15.1277 165.577 15.9041C164.025 16.6805 161.993 17.1926 159.482 17.4404C159.564 18.9932 160.349 19.7696 161.836 19.7696C162.381 19.7696 162.918 19.6704 163.446 19.4722C163.992 19.274 164.57 18.9684 165.181 18.5554L166.569 20.8846C164.95 22.0575 163.207 22.6439 161.34 22.6439C159.474 22.6439 158.053 22.1483 157.078 21.1572C156.104 20.1495 155.616 18.7867 155.616 17.0687C155.616 15.7471 155.864 14.4421 156.36 13.1536C156.872 11.8651 157.69 10.7914 158.813 9.93239C159.936 9.07339 161.357 8.64389 163.075 8.64389C164.611 8.64389 165.8 8.98254 166.643 9.65982C167.502 10.3371 167.931 11.1961 167.931 12.2368ZM159.655 15.0616C161.192 14.9625 162.307 14.6734 163 14.1943C163.694 13.6988 164.041 13.1041 164.041 12.4103C164.041 12.0964 163.942 11.8238 163.744 11.5926C163.546 11.3613 163.223 11.2457 162.777 11.2457C161.918 11.2457 161.233 11.6091 160.721 12.3359C160.209 13.0628 159.854 13.9713 159.655 15.0616ZM174.85 8.64389C176.733 8.64389 178.344 9.20554 179.682 10.3288L177.972 12.435C177.493 12.1047 176.981 11.8569 176.436 11.6917C175.907 11.51 175.387 11.4191 174.874 11.4191C174.313 11.4191 173.875 11.5182 173.561 11.7165C173.264 11.9147 173.115 12.179 173.115 12.5094C173.115 12.7406 173.181 12.9306 173.313 13.0793C173.462 13.228 173.702 13.3766 174.032 13.5253C174.379 13.6575 174.924 13.8392 175.667 14.0704C176.807 14.4339 177.658 14.9377 178.22 15.5819C178.798 16.2262 179.087 17.0522 179.087 18.0598C179.087 18.9023 178.872 19.6704 178.443 20.3642C178.013 21.0581 177.352 21.6114 176.46 22.0244C175.568 22.4374 174.478 22.6439 173.19 22.6439C172.05 22.6439 171.001 22.4457 170.043 22.0492C169.085 21.6527 168.308 21.1324 167.713 20.4881L169.671 18.4563C170.712 19.3814 171.893 19.8439 173.214 19.8439C173.875 19.8439 174.379 19.72 174.726 19.4722C175.073 19.2244 175.246 18.9106 175.246 18.5306C175.246 18.2333 175.172 18.002 175.023 17.8368C174.891 17.6551 174.651 17.4899 174.305 17.3412C173.958 17.176 173.404 16.9613 172.644 16.697C171.488 16.3005 170.637 15.805 170.092 15.2103C169.564 14.6156 169.299 13.8392 169.299 12.8811C169.299 12.1047 169.514 11.4026 169.944 10.7749C170.373 10.1306 171.009 9.61852 171.851 9.23858C172.694 8.84212 173.693 8.64389 174.85 8.64389ZM186.14 9.06513L184.307 22.2227H180.466L182.3 9.06513H186.14ZM184.629 6.58725C184.018 6.58725 183.522 6.40554 183.142 6.04212C182.762 5.66218 182.572 5.18312 182.572 4.60495C182.572 3.89463 182.812 3.3082 183.291 2.84566C183.786 2.38312 184.398 2.15186 185.124 2.15186C185.736 2.15186 186.231 2.33357 186.611 2.69699C186.991 3.06041 187.181 3.53121 187.181 4.10938C187.181 4.8197 186.933 5.41439 186.438 5.89345C185.959 6.35599 185.356 6.58725 184.629 6.58725ZM195.069 8.64389C196.969 8.64389 198.761 9.10643 200.446 10.0315L198.811 21.2067C198.48 23.5029 197.762 25.1631 196.655 26.1873C195.565 27.228 193.979 27.7483 191.897 27.7483C191.088 27.7483 190.237 27.6162 189.345 27.3519C188.47 27.0876 187.669 26.7324 186.942 26.2864L188.255 23.7342C189.51 24.428 190.7 24.7749 191.823 24.7749C192.682 24.7749 193.384 24.5684 193.929 24.1554C194.491 23.7424 194.854 22.9495 195.02 21.7766L195.193 20.5129C194.731 21.0415 194.202 21.4628 193.607 21.7766C193.029 22.074 192.401 22.2227 191.724 22.2227C190.336 22.2227 189.271 21.7601 188.528 20.835C187.784 19.91 187.413 18.671 187.413 17.1182C187.413 15.7802 187.669 14.4669 188.181 13.1784C188.709 11.8734 189.544 10.7914 190.683 9.93239C191.84 9.07339 193.302 8.64389 195.069 8.64389ZM194.945 11.4191C194.119 11.4191 193.442 11.7082 192.913 12.2864C192.385 12.8645 191.997 13.5831 191.749 14.4421C191.518 15.3011 191.402 16.1601 191.402 17.0191C191.402 18.5554 191.914 19.3235 192.938 19.3235C193.83 19.3235 194.689 18.7123 195.515 17.4899L196.432 11.6669C195.936 11.5017 195.441 11.4191 194.945 11.4191ZM211.229 8.64389C212.154 8.64389 212.881 8.92472 213.409 9.48637C213.938 10.048 214.202 10.8244 214.202 11.8156C214.202 12.0799 214.177 12.3772 214.128 12.7076L212.814 22.2227H208.974L210.188 13.5253C210.221 13.1949 210.237 12.9884 210.237 12.9058C210.237 12.5094 210.163 12.2368 210.014 12.0881C209.882 11.9229 209.684 11.8404 209.42 11.8404C208.528 11.8404 207.561 12.8893 206.521 14.9873L205.48 22.2227H201.639L203.473 9.06513H206.818L206.744 11.3696C207.322 10.5271 207.999 9.86631 208.776 9.38726C209.552 8.89168 210.37 8.64389 211.229 8.64389Z" fill="#1D2129"/>
</g>
<circle cx="10.5725" cy="27.8855" r="2.1145" transform="rotate(-90 10.5725 27.8855)" fill="#44B310"/>
<path d="M10.5725 25.7714V30.0004C4.73346 30.0004 0 25.267 0 19.4279C0 13.5889 4.73346 8.85547 10.5725 8.85547V13.0845C7.06907 13.0845 4.22899 15.9245 4.22899 19.4279C4.22899 22.9314 7.06907 25.7714 10.5725 25.7714Z" fill="#44B310"/>
<path d="M10.5725 25.7714V30.0004C4.73346 30.0004 0 25.267 0 19.4279C0 13.5889 4.73346 8.85547 10.5725 8.85547V13.0845C7.06907 13.0845 4.22899 15.9245 4.22899 19.4279C4.22899 22.9314 7.06907 25.7714 10.5725 25.7714Z" fill="#44B310"/>
<path d="M20.9421 22.643L18.7617 25.9535C11.7897 19.4969 8.06207 14.5272 8.06207 10.6178C8.06207 4.75376 12.7955 0 18.6346 0C24.4736 0 29.207 4.75376 29.207 10.6178L24.978 10.6178C24.978 7.08533 22.1339 4.22899 18.6346 4.22899C15.1352 4.22899 12.2911 7.08533 12.2911 10.6178C12.2911 12.93 15.0828 17.138 20.9421 22.643Z" fill="#4886FF"/>
<path d="M19.1723 26.0347C16.562 23.6174 13.9073 21.6076 12.188 19.45C9.42808 15.9865 8.06207 13.0635 8.06207 10.6178C8.06207 4.75376 12.7955 0 18.6346 0C24.4736 0 29.207 4.75376 29.207 10.6178L24.978 10.6178C24.978 7.08533 22.1339 4.22899 18.6346 4.22899C15.1352 4.22899 12.2911 7.08533 12.2911 10.6178C12.2911 12.93 15.0828 17.138 20.9421 22.643L19.1723 26.0347Z" fill="#4886FF"/>
<path fill-rule="evenodd" clip-rule="evenodd" d="M8.57674 13.3899C9.39948 13.0542 10.0329 12.8201 10.4769 12.6878C11.1063 12.5002 11.9852 12.3916 12.6499 12.3125C12.8213 12.6929 13.2804 13.7869 14.2724 15.2123C14.6632 15.7738 15.4334 16.7347 16.5831 18.095L13.5158 20.9934C13.1595 20.5913 12.8708 20.2601 12.6499 19.9997C12.0703 19.3165 11.3623 18.4535 10.7727 17.5841C9.16432 15.2123 8.52866 13.4095 8.57674 13.3899Z" fill="#DC2021"/>
<path fill-rule="evenodd" clip-rule="evenodd" d="M37.2676 19.4279C37.2676 25.267 32.5341 30.0004 26.6951 30.0004C23.7774 30.0004 20.3243 28.0205 16.3357 24.0607C15.4472 23.1786 14.0546 21.6344 12.1579 19.4279C17.9567 12.3796 22.8024 8.85547 26.6951 8.85547C32.5341 8.85547 37.2676 13.5889 37.2676 19.4279ZM33.0381 19.4294C33.0381 15.926 30.198 13.0859 26.6946 13.0859C24.805 13.0859 21.7067 15.1192 17.7666 19.4121C18.4097 20.1253 18.9275 20.6767 19.3147 21.0611C22.5868 24.3095 25.139 25.7729 26.6946 25.7729C30.198 25.7729 33.0381 22.9328 33.0381 19.4294Z" fill="#F5A623"/>
<defs>
<clipPath id="clip0_3590_101143">
<rect width="168.248" height="28" fill="white" transform="translate(47 1)"/>
</clipPath>
</defs>
</svg>
